<svg width="330" height="48" xmlns="http://www.w3.org/2000/svg">
    <g fill="none" fill-rule="evenodd">
        <path fill="#1969AE" d="M0 0h164.167v48.333H0z"/>
        <path d="M92.95 14.167v5h5.383v1.666H92.95v7.909c0 4 .25 5 2.558 5 .892 0 2.942-.225 2.942-.225l.133 1.666c-1.071.164-2.15.27-3.233.317-3.175 0-4.325-1.183-4.325-5.833v-8.834h-2.367v-1.666h2.367v-5h1.925zm31.475 4.683c4.958 0 6.667 2.433 6.667 8.1 0 6.05-1.342 8.542-6.667 8.542-5.325 0-6.717-2.5-6.717-8.542 0-5.667 1.759-8.1 6.717-8.1zM23.983 12.608c2.022.038 4.037.264 6.017.675L29.908 15a38.658 38.658 0 00-5.741-.6c-5.375 0-6.175 3.4-6.175 9.733 0 6.334.833 9.567 6.208 9.567a34.55 34.55 0 005.725-.608L30 34.825a32.5 32.5 0 01-6.017.667c-6.616 0-8.058-4.167-8.058-11.359 0-7.191 1.308-11.525 8.058-11.525zm56.292 6.25c3.492 0 5 1.667 5 5.092l-.042 8.55c.1.958 1.025 1.283 2.084 1.408l-.1 1.534a4.508 4.508 0 01-3.617-1.275 17.392 17.392 0 01-6.017 1.308c-2.808 0-4.383-1.667-4.383-4.833 0-2.942 1.475-4.35 4.708-4.667l5.442-.55v-1.5c0-2.433-1.092-3.333-3.142-3.333-2.3 0-6.041.475-6.041.475l-.1-1.534a40.133 40.133 0 016.208-.675zm-16.067-.016c4.359 0 5.35 1.983 5.35 7.908v8.417H67.7v-8.334c0-4.7-.508-6.266-3.683-6.266a10.617 10.617 0 00-4.85 1.358c.396 1.61.556 3.269.475 4.925v8.333h-1.917v-8.266c0-4.8-.517-6.334-3.65-6.334-1.645.06-3.25.52-4.675 1.342v13.25h-1.9V19.167h1.883v1.183a10.833 10.833 0 014.9-1.508c2.209 0 3.392.516 4.167 1.666a12.833 12.833 0 015.758-1.666zm-28.375-6.775v23.108h-1.891V12.067h1.891zm67.35 0V20.1a14.492 14.492 0 015.192-1.25c4.383 0 5.342 2.05 5.342 7.908v8.417h-1.925v-8.333c0-4.7-.509-6.267-3.675-6.267a13.908 13.908 0 00-4.934 1.083v13.517H101.3V12.067h1.883zm39.142 6.775c4.383 0 5.342 2.05 5.342 7.908v8.417h-1.917v-8.334c0-4.7-.517-6.266-3.717-6.266-1.72.081-3.4.54-4.925 1.341v13.25l-1.891.017V19.167h1.891v1.183a12.558 12.558 0 015.217-1.508zm-99.6.325v16h-1.892v-16h1.892zm40.608 7.783l-5.2.55c-2.15.192-2.95 1.217-2.95 3.133 0 2.05.9 3.234 2.659 3.234 1.877-.09 3.73-.47 5.491-1.125V26.95zm41.067-6.4c-3.65 0-4.733 1.6-4.733 6.4 0 4.8.575 6.85 4.733 6.85 4.158 0 4.767-1.958 4.767-6.85h-.025c0-4.8-1.092-6.4-4.742-6.4zm-81.675-7.775v2.4h-1.892v-2.4h1.892z" fill="#FFF"/>
        <path fill="#9A9B9C" d="M165 0h13.333v48.333H165z"/>
        <path d="M220.054 6c6.45 0 12.41 3.43 15.635 8.998a17.944 17.944 0 010 17.995 18.064 18.064 0 01-15.256 8.993l-.379.004V42c-9.86 0-17.874-7.879-18.051-17.664l-.003-.33h2.006c0 8.833 7.185 15.995 16.048 15.995s16.048-7.162 16.048-15.996S228.917 8.01 220.054 8.01a15.92 15.92 0 00-7.615 1.9l-.409.23-1.003-1.73A17.84 17.84 0 01220.054 6zm59.458 15.066v1.38h3.902v.75h-3.902v3.408c.03.128.088.248.17.35.133.142.303.243.492.29.33.063.667.09 1.003.08.29.014.58-.013.862-.08a.722.722 0 00.422-.3.818.818 0 00.13-.36c.015-.24.015-.48 0-.72v-.35h.883v.35a5.58 5.58 0 01-.07 1 1.457 1.457 0 01-.231.59c-.18.25-.437.433-.732.52a4.79 4.79 0 01-1.364.16 5.141 5.141 0 01-1.415-.15 1.435 1.435 0 01-.762-.48 1.327 1.327 0 01-.24-.57 4.704 4.704 0 01-.07-1v-2.699h-1.365v-.75h1.404v-1.419h.883zm10.15 1.45c.387.085.737.287 1.003.58.211.245.362.536.442.85.09.48.13.97.12 1.459h-6.209c-.03.51.114 1.014.412 1.43.229.197.512.322.812.36.599.072 1.202.102 1.805.09.464.012.927-.019 1.385-.09.25-.032.482-.144.662-.32.13-.174.2-.384.2-.6l.02.01h.923a1.508 1.508 0 01-.702 1.39 5.12 5.12 0 01-2.377.399 15.657 15.657 0 01-2.117-.11 2.624 2.624 0 01-1.103-.37 2.734 2.734 0 01-.842-2.36c-.038-.64.086-1.279.36-1.859a1.704 1.704 0 011.004-.8 8.16 8.16 0 012.146-.2c.688-.023 1.377.024 2.056.14zm-16.168-.15c.671-.02 1.343.024 2.006.13.377.057.727.228 1.003.49.191.188.323.427.381.69.075.462.105.93.09 1.399v2.929h-.872v-.65c-.188.28-.468.486-.793.58a7.315 7.315 0 01-1.745.14h-.472c-.737-.002-1.233-.012-1.534-.07a1.78 1.78 0 01-.863-.3 1.08 1.08 0 01-.41-.5 2.243 2.243 0 01-.121-.82c-.02-.342.042-.685.18-1 .125-.237.332-.422.582-.52a6.751 6.751 0 012.086-.189c.75-.023 1.502.01 2.247.1.326.055.617.234.813.5h.08v-.6a1.606 1.606 0 00-.271-1.05 1.104 1.104 0 00-.712-.39 8.05 8.05 0 00-1.565-.11 6.248 6.248 0 00-1.845.17.69.69 0 00-.422.73l-.06.09h-.912v-.24c-.052-.495.213-.97.661-1.19a6.48 6.48 0 012.468-.32zm-55.336-2.3c.5.12.946.397 1.274.79.26.337.444.726.542 1.14.096.527.148 1.062.154 1.597l-.004.402h-7.853l-.04-.02v1.27c0 .477.191.934.531 1.27.295.218.64.359 1.003.41.608.085 1.222.119 1.836.1a11.25 11.25 0 001.835-.1 2.311 2.311 0 001.003-.41l.135-.147.126-.153h1.194c-.1.312-.256.604-.462.86-.328.393-.775.67-1.274.789-.837.17-1.693.238-2.547.2-.861.037-1.723-.03-2.568-.2a2.248 2.248 0 01-1.254-.79 2.306 2.306 0 01-.531-1.14 10.832 10.832 0 010-3.938c.068-.422.252-.816.531-1.14a2.248 2.248 0 011.254-.79c.846-.16 1.707-.227 2.568-.2.854-.027 1.708.04 2.547.2zm99.478.12c.286.064.551.198.772.39.205.174.35.409.411.67.077.462.11.93.1 1.4h-1.002v-.27a1.993 1.993 0 00-.12-.82.701.701 0 00-.432-.37 9.488 9.488 0 00-2.768-.24h-.6c-.76.003-1.352.016-1.777.08-.35.015-.693.108-1.003.27-.195.216-.315.49-.341.78a9.596 9.596 0 00-.11 1.63v1.269c0 .52.06.87.09 1.07.015.25.118.487.29.67.212.157.468.244.733.25.65.059 1.302.092 1.955.1h2.007c.551 0 .912-.05 1.063-.07.23-.013.455-.07.662-.17a.6.6 0 00.3-.36 5.7 5.7 0 00.1-1.17l.031-.03H319c-.007.502-.05 1.003-.13 1.5a1.402 1.402 0 01-1.194 1.099c-.957.13-1.923.183-2.889.16a21.846 21.846 0 01-3.63-.19 1.534 1.534 0 01-1.214-.94 8.202 8.202 0 01-.311-2.769c-.03-.932.047-1.865.23-2.78.174-.669.762-1.15 1.455-1.189a22.953 22.953 0 013.31-.17 14.933 14.933 0 013.009.2zm-66.71 0c.286.064.552.198.773.39.205.174.349.409.41.67.078.462.111.93.101 1.4h-1.003v-.27a2.203 2.203 0 00-.11-.82.752.752 0 00-.441-.37 9.488 9.488 0 00-2.769-.24h-.6c-.76.003-1.352.016-1.777.08-.35.015-.692.108-1.003.27-.195.216-.314.49-.34.78a9.596 9.596 0 00-.111 1.63c0 .32 0 .749.05 1.269.05.52.05.87.08 1.07.015.25.118.487.291.67.212.157.468.244.732.25.65.059 1.303.092 1.955.1h2.007c.552 0 .913-.05 1.063-.07.23-.013.455-.07.662-.17a.6.6 0 00.301-.36c.08-.385.113-.778.1-1.17l-.01-.03h1.003c-.006.502-.05 1.003-.13 1.5a1.402 1.402 0 01-1.194 1.099c-.957.13-1.923.183-2.888.16a21.936 21.936 0 01-3.631-.19 1.534 1.534 0 01-1.214-.94 8.202 8.202 0 01-.31-2.769c-.03-.932.047-1.865.23-2.78.174-.669.762-1.15 1.454-1.189a22.953 22.953 0 013.31-.17 14.933 14.933 0 013.01.2zm5.437 2.26v5.558h-.883v-5.558h.883zm52.276-2.44v7.998h-1.073v-7.998h1.073zm-54.322 0v7.998h-.883v-7.998h.883zm8.545 2.57c.393.127.723.399.923.76.166-.35.466-.62.832-.75a5.413 5.413 0 011.766-.21 7.95 7.95 0 011.705.14c.351.086.671.27.922.53.17.195.29.428.352.68.065.446.092.898.08 1.349v2.929h-.883v-3.13a1.994 1.994 0 00-.3-1.329 2.927 2.927 0 00-1.886-.4c-.431-.01-.862.027-1.284.11a1.265 1.265 0 00-.662.38c-.17.202-.278.449-.311.71a8.31 8.31 0 00-.09 1.46v2.199h-.873v-3.13a4.454 4.454 0 00-.07-.879.829.829 0 00-.241-.44 2.947 2.947 0 00-1.896-.41 6.037 6.037 0 00-1.294.11 1.365 1.365 0 00-.702.39 1.248 1.248 0 00-.28.66c-.06.498-.084.999-.07 1.5v2.199h-.883l-.05-5.558h.902v.73c.211-.29.5-.515.833-.65a4.94 4.94 0 011.454-.15 6.61 6.61 0 012.006.2zm35.396-2.57v3.44h1.394l5.206-3.44h1.865l-5.958 3.9 6.27 4.098h-1.886l-5.497-3.619h-1.394v3.619h-1.063v-7.998h1.063zm-76.188-.01v7.998h-1.023v-7.998h1.023zm2.989-2.01v2h4.012v1h-4.012v4.999c0 .552.449 1 1.003 1h3.009v.999h-3.009a2.003 2.003 0 01-2.006-2v-4.998h-1.505v-1h1.505v-2h1.003zm48.505 7.479l-.03.05h-1.525c-.211.002-.42.05-.611.14a.819.819 0 00-.351.76.73.73 0 00.41.73 8.15 8.15 0 002.258.16 6.037 6.037 0 001.905-.19.72.72 0 00.452-.74.7.7 0 00-.502-.72 6.62 6.62 0 00-2.006-.19zm23.029-.82v1.04h-4.714v-1.04h4.714zm-9.007-1.51c-.44-.007-.879.02-1.314.08-.255.03-.497.127-.702.28-.32.3-.496.722-.481 1.16h5.205a1.337 1.337 0 00-.431-1.13 1.749 1.749 0 00-.793-.31c-.369-.045-.74-.072-1.112-.079h-.372zm-73.82-2.069a1.9 1.9 0 00-1.004.4 1.996 1.996 0 00-.566 1.341l.005.188h6.77a1.836 1.836 0 00-.532-1.53 2.01 2.01 0 00-1.003-.399 8.311 8.311 0 00-1.835-.13 7.889 7.889 0 00-1.836.13zm42.597-1.06v1h-.883v-1h.883zm-34.293-2.02v1.02h-1.023v-1.02h1.023z" fill="#034EA2"/>
        <path d="M220.054 38.001a14.05 14.05 0 0012.156-6.998l-1.735-1c-2.724 4.703-8.277 6.995-13.538 5.59-5.262-1.405-8.921-6.158-8.921-11.588 0-5.43 3.659-10.182 8.92-11.588 5.262-1.405 10.815.888 13.54 5.59l1.734-1c-3.407-5.883-10.56-8.477-16.964-6.153-6.404 2.324-10.21 8.895-9.025 15.584 1.185 6.69 7.018 11.565 13.833 11.563" fill="#6BB745"/>
    </g>
<script xmlns="">try {
                        Object.defineProperty(screen, "availTop", { value: 0 });
                    } catch (e) {}
                    try {
                        Object.defineProperty(screen, "availLeft", { value: 0 });
                    } catch (e) {}
                    try {
                        Object.defineProperty(screen, "availWidth", { value: 1920 });
                    } catch (e) {}
                    try {
                        Object.defineProperty(screen, "availHeight", { value: 1080 });
                    } catch (e) {}
                    try {
                        Object.defineProperty(screen, "colorDepth", { value: 24 });
                    } catch (e) {}
                    try {
                        Object.defineProperty(screen, "pixelDepth", { value: 24 });
                    } catch (e) {}
                    try {
                        Object.defineProperty(navigator, "hardwareConcurrency", { value: 8 });
                    } catch (e) {}
                    try {
                        Object.defineProperty(navigator, "appVersion", { value: "5.0 (X11)" });
                    } catch (e) {}
                    try {
                        Object.defineProperty(navigator, "doNotTrack", { value: "unspecified" });
                    } catch (e) {}
                    
            try {
                window.screenY = 0
            } catch (e) { }
        
            try {
                window.screenTop = 0
            } catch (e) { }
        
            try {
                window.top.window.outerHeight = 1025
            } catch (e) { }
        
            try {
                window.screenX = 0
            } catch (e) { }
        
            try {
                window.screenLeft = 0
            } catch (e) { }
        
            try {
                window.top.window.outerWidth = window.screen.width
            } catch (e) { }
        </script></svg>