<!DOCTYPE svg PUBLIC "-//W3C//DTD SVG 1.1//EN" "http://www.w3.org/Graphics/SVG/1.1/DTD/svg11.dtd">
<svg version="1.1" xmlns="http://www.w3.org/2000/svg" xmlns:xlink="http://www.w3.org/1999/xlink" width="100%" height="100%" viewBox="-70 -635 880 652">
 <title>Phase diagram of water (simplified)</title>
 <desc>Phase diagram of water as a log-lin chart with pressure from 1 Pa to 1 TPa and temperature from 0 K to 650 K, compiled from data in http://www.lsbu.ac.uk/water/phase.html and http://ergodic.ugr.es/termo/lecciones/water1.html by CMG Lee. Note that the phases of Ice X and XI (hexagonal) differ from the diagram in https://chem331001fall09.pbworks.com/w/page/15647320/LECTURE-10 . This is a simplified version the diagram.</desc>
 <defs>
  <radialGradient id="solid" cx="50%" cy="50%" r="80%" fx="0%" fy="0%">
   <stop offset="0%" stop-color="#0099ff" stop-opacity="0"/>
   <stop offset="100%" stop-color="#0099ff" stop-opacity="0.5"/>
  </radialGradient>
  <radialGradient id="liquid" cx="100%" cy="0%" r="80%" fx="100%" fy="40%">
   <stop offset="0%" stop-color="#00cc00" stop-opacity="0"/>
   <stop offset="30%" stop-color="#00cc00" stop-opacity="0"/>
   <stop offset="100%" stop-color="#00cc00" stop-opacity="0.5"/>
  </radialGradient>
  <radialGradient id="gas" cx="50%" cy="50%" r="80%" fx="100%" fy="0%">
   <stop offset="0%" stop-color="#ff9900" stop-opacity="0"/>
   <stop offset="15%" stop-color="#ff9900" stop-opacity="0"/>
   <stop offset="100%" stop-color="#ff9900" stop-opacity="0.5"/>
  </radialGradient>

  <g id="grid_x" stroke-opacity="0.2">
   <!--<line x1="0" y1="0" x2="0" y2="-605" stroke-opacity="0.4"/>
   <line x1="10" y1="0" x2="10" y2="-600"/>
   <line x1="20" y1="0" x2="20" y2="-600"/>
   <line x1="30" y1="0" x2="30" y2="-600"/>
   <line x1="40" y1="0" x2="40" y2="-600"/>-->
  </g>
  <g id="grid_y" stroke-opacity="0.15">
   <!--<line x1="-5" y1="0" x2="655" y2="0" stroke-opacity="0.4"/>
   <line x1="0" y1="-15.051" x2="650" y2="-15.051"/>
   <line x1="0" y1="-23.856" x2="650" y2="-23.856"/>
   <line x1="0" y1="-30.103" x2="650" y2="-30.103"/>
   <line x1="0" y1="-34.949" x2="650" y2="-34.949" stroke-opacity="0.3"/>
   <line x1="0" y1="-38.908" x2="650" y2="-38.908"/>
   <line x1="0" y1="-42.255" x2="650" y2="-42.255"/>
   <line x1="0" y1="-45.154" x2="650" y2="-45.154"/>
   <line x1="0" y1="-47.712" x2="650" y2="-47.712"/>-->
  </g>
  <g id="grid" letter-spacing="-1">
   <g id="line_grid" stroke="#000000">
    <!--<use xlink:href="#grid_x"/>
    <use xlink:href="#grid_x" transform="translate(50,0)"/>
    <use xlink:href="#grid_x" transform="translate(100,0)"/>
    <use xlink:href="#grid_x" transform="translate(150,0)"/>
    <use xlink:href="#grid_x" transform="translate(200,0)"/>
    <use xlink:href="#grid_x" transform="translate(250,0)"/>
    <use xlink:href="#grid_x" transform="translate(300,0)"/>
    <use xlink:href="#grid_x" transform="translate(350,0)"/>
    <use xlink:href="#grid_x" transform="translate(400,0)"/>
    <use xlink:href="#grid_x" transform="translate(450,0)"/>
    <use xlink:href="#grid_x" transform="translate(500,0)"/>
    <use xlink:href="#grid_x" transform="translate(550,0)"/>
    <use xlink:href="#grid_x" transform="translate(600,0)"/>
    <use xlink:href="#grid_y"/>
    <use xlink:href="#grid_y" transform="translate(0,-50)"/>
    <use xlink:href="#grid_y" transform="translate(0,-100)"/>
    <use xlink:href="#grid_y" transform="translate(0,-150)"/>
    <use xlink:href="#grid_y" transform="translate(0,-200)"/>
    <use xlink:href="#grid_y" transform="translate(0,-250)"/>
    <use xlink:href="#grid_y" transform="translate(0,-300)"/>
    <use xlink:href="#grid_y" transform="translate(0,-350)"/>
    <use xlink:href="#grid_y" transform="translate(0,-400)"/>
    <use xlink:href="#grid_y" transform="translate(0,-450)"/>
    <use xlink:href="#grid_y" transform="translate(0,-500)"/>
    <use xlink:href="#grid_y" transform="translate(0,-550)"/>-->
    <line x1="-5" y1="-700" x2="755" y2="-700" stroke-opacity="0.4"/>
    <line x1="750" y1="-605" x2="750" y2="0" stroke-opacity="0.4"/>
    <rect x="0" y="-600" width="750" height="600" fill="none"/>
   </g>
   <g id="text_grid_unit" font-size="16" font-weight="bold" text-anchor="middle" letter-spacing="0" fill="#000000">
    <switch>
     <text transform="rotate(-90)" x="300" y="-55" systemLanguage="de">Druck</text>
     <text transform="rotate(-90)" x="300" y="-55">Pressure</text>
    </switch>
    <switch>
     <text x="373.15" y="-620" systemLanguage="de">Temperatur</text>
     <text x="373.15" y="-620">Temperature</text>
    </switch>
   </g>
   <g id="text_grid_pa" font-size="12" text-anchor="end" fill="#000000">
    <text x="-5" y="0" dy="0.5em">1 Pa</text>
    <text x="-5" y="-50" dy="0.5em">10 Pa</text>
    <text x="-5" y="-100" dy="0.5em">100 Pa</text>
    <text x="-5" y="-150" dy="0.5em">1 kPa</text>
    <text x="-5" y="-200" dy="0.5em">10 kPa</text>
    <text x="-5" y="-250" dy="0.5em">100 kPa</text>
    <text x="-5" y="-300" dy="0.5em">1 MPa</text>
    <text x="-5" y="-350" dy="0.5em">10 MPa</text>
    <text x="-5" y="-400" dy="0.5em">100 MPa</text>
    <text x="-5" y="-450" dy="0.5em">1 GPa</text>
    <text x="-5" y="-500" dy="0.5em">10 GPa</text>
    <text x="-5" y="-550" dy="0.5em">100 GPa</text>
    <text x="-5" y="-600" dy="0.5em">1 TPa</text>
   </g>
   <g id="tick_pa" stroke="#000000">
    <line x1="0" y1="0" x2="-5" y2="0"/>
    <line x1="0" y1="-50" x2="-5" y2="-50"/>
    <line x1="0" y1="-100" x2="-5" y2="-100"/>
    <line x1="0" y1="-150" x2="-5" y2="-150"/>
    <line x1="0" y1="-200" x2="-5" y2="-200"/>
    <line x1="0" y1="-250" x2="-5" y2="-250"/>
    <line x1="0" y1="-300" x2="-5" y2="-300"/>
    <line x1="0" y1="-350" x2="-5" y2="-350"/>
    <line x1="0" y1="-400" x2="-5" y2="-400"/>
    <line x1="0" y1="-450" x2="-5" y2="-450"/>
    <line x1="0" y1="-500" x2="-5" y2="-500"/>
    <line x1="0" y1="-550" x2="-5" y2="-550"/>
    <line x1="0" y1="-600" x2="-5" y2="-600"/>
   </g>
   <g id="text_grid_bar" font-size="12" text-anchor="start" fill="#ff0000">
    <text x="755" y="0" dy="0.5em">10 µbar</text>
    <text x="755" y="-50" dy="0.5em">100 µbar</text>
    <text x="755" y="-100" dy="0.5em">1 mbar</text>
    <text x="755" y="-150" dy="0.5em">10 mbar</text>
    <text x="755" y="-200" dy="0.5em">100 mbar</text>
    <text x="755" y="-250" dy="0.5em">1 bar</text>
    <text x="755" y="-300" dy="0.5em">10 bar</text>
    <text x="755" y="-350" dy="0.5em">100 bar</text>
    <text x="755" y="-400" dy="0.5em">1 kbar</text>
    <text x="755" y="-450" dy="0.5em">10 kbar</text>
    <text x="755" y="-500" dy="0.5em">100 kbar</text>
    <text x="755" y="-550" dy="0.5em">1 Mbar</text>
    <text x="755" y="-600" dy="0.5em">10 Mbar</text>
   </g>
   <g id="tick_bar" stroke="#ff0000">
    <line x1="750" y1="0" x2="755" y2="0"/>
    <line x1="750" y1="-50" x2="755" y2="-50"/>
    <line x1="750" y1="-100" x2="755" y2="-100"/>
    <line x1="750" y1="-150" x2="755" y2="-150"/>
    <line x1="750" y1="-200" x2="755" y2="-200"/>
    <line x1="750" y1="-250" x2="755" y2="-250"/>
    <line x1="750" y1="-300" x2="755" y2="-300"/>
    <line x1="750" y1="-350" x2="755" y2="-350"/>
    <line x1="750" y1="-400" x2="755" y2="-400"/>
    <line x1="750" y1="-450" x2="755" y2="-450"/>
    <line x1="750" y1="-500" x2="755" y2="-500"/>
    <line x1="750" y1="-550" x2="755" y2="-550"/>
    <line x1="750" y1="-600" x2="755" y2="-600"/>
   </g>
   <g id="text_grid_k" font-size="12" text-anchor="middle" fill="#000000">
    <text x="0" y="-606">0 K</text>
    <text x="50" y="-606">50 K</text>
    <text x="100" y="-606">100 K</text>
    <text x="150" y="-606">150 K</text>
    <text x="200" y="-606">200 K</text>
    <text x="250" y="-606">250 K</text>
    <text x="300" y="-606">300 K</text>
    <text x="350" y="-606">350 K</text>
    <text x="400" y="-606">400 K</text>
    <text x="450" y="-606">450 K</text>
    <text x="500" y="-606">500 K</text>
    <text x="550" y="-606">550 K</text>
    <text x="600" y="-606">600 K</text>
    <text x="650" y="-606">650 K</text>
    <text x="700" y="-606">700 K</text>
    <text x="750" y="-606">750 K</text>
   </g>
   <g id="tick_k" stroke="#000000">
    <line x1="0" y1="-600" x2="0" y2="-605"/>
    <line x1="50" y1="-600" x2="50" y2="-605"/>
    <line x1="100" y1="-600" x2="100" y2="-605"/>
    <line x1="150" y1="-600" x2="150" y2="-605"/>
    <line x1="200" y1="-600" x2="200" y2="-605"/>
    <line x1="250" y1="-600" x2="250" y2="-605"/>
    <line x1="300" y1="-600" x2="300" y2="-605"/>
    <line x1="350" y1="-600" x2="350" y2="-605"/>
    <line x1="400" y1="-600" x2="400" y2="-605"/>
    <line x1="450" y1="-600" x2="450" y2="-605"/>
    <line x1="500" y1="-600" x2="500" y2="-605"/>
    <line x1="550" y1="-600" x2="550" y2="-605"/>
    <line x1="600" y1="-600" x2="600" y2="-605"/>
    <line x1="650" y1="-600" x2="650" y2="-605"/>
    <line x1="700" y1="-600" x2="700" y2="-605"/>
    <line x1="750" y1="-600" x2="750" y2="-605"/>
   </g>
   <g id="text_grid_c" font-size="12" text-anchor="middle" fill="#ff0000">
    <text x="23.15" y="16">-250 °C</text>
    <text x="73.15" y="16">-200 °C</text>
    <text x="123.15" y="16">-150 °C</text>
    <text x="173.15" y="16">-100 °C</text>
    <text x="223.15" y="16">-50 °C</text>
    <text x="273.15" y="16">0 °C</text>
    <text x="323.15" y="16">50 °C</text>
    <text x="373.15" y="16">100 °C</text>
    <text x="423.15" y="16">150 °C</text>
    <text x="473.15" y="16">200 °C</text>
    <text x="523.15" y="16">250 °C</text>
    <text x="573.15" y="16">300 °C</text>
    <text x="623.15" y="16">350 °C</text>
    <text x="673.15" y="16">400 °C</text>
    <text x="723.15" y="16">450 °C</text>
   </g>
   <g id="tick_c" stroke="#ff0000">
    <line x1="23.15" y1="0" x2="23.15" y2="5"/>
    <line x1="73.15" y1="0" x2="73.15" y2="5"/>
    <line x1="123.15" y1="0" x2="123.15" y2="5"/>
    <line x1="173.15" y1="0" x2="173.15" y2="5"/>
    <line x1="223.15" y1="0" x2="223.15" y2="5"/>
    <line x1="273.15" y1="0" x2="273.15" y2="5"/>
    <line x1="323.15" y1="0" x2="323.15" y2="5"/>
    <line x1="373.15" y1="0" x2="373.15" y2="5"/>
    <line x1="423.15" y1="0" x2="423.15" y2="5"/>
    <line x1="473.15" y1="0" x2="473.15" y2="5"/>
    <line x1="523.15" y1="0" x2="523.15" y2="5"/>
    <line x1="573.15" y1="0" x2="573.15" y2="5"/>
    <line x1="623.15" y1="0" x2="623.15" y2="5"/>
    <line x1="673.15" y1="0" x2="673.15" y2="5"/>
    <line x1="723.15" y1="0" x2="723.15" y2="5"/>
   </g>
  </g>


  <g id="main" font-family="sans-serif">
   <rect x="-70" y="-635" width="880" height="652" fill="#ffffff"/>

   <g id="shade" stroke="none">
    <path id="S" d="M 750 -600 L 0 -600 L 0 0 L 212 0 Q 240 -85 273.16 -139.328 L 273.15 -250.286 C 273 -380 270 -400 251.17 -416.101 L 256.15 -427.210 L 272.99 -440.050 L 355.00 -467.278 C 400 -470 550 -490 650 -506 Q 660 -508 750 -520.724" fill="url(#solid)"/>
    <path id="L" d="M 750 -368 L 647.00 -367.184 Q 480 -330 373.15 -250.286 Q 310 -200 273.16 -139.328 L 273.15 -250.286 C 273 -380 270 -400 251.17 -416.101 L 256.15 -427.210 L 272.99 -440.050 L 355.00 -467.278 C 400 -470 550 -490 650 -506 Q 660 -508 750 -520.724" fill="url(#liquid)"/>
    <path id="G" d="M 750 -368 L 647.00 -367.184 Q 480 -330 373.15 -250.286 Q 310 -200 273.16 -139.328 Q 240 -85 212 0 L 750 0" fill="url(#gas)"/>
   </g>

   <use xlink:href="#grid"/>

   <g id="boundary_phase" stroke="#000000" stroke-width="2" fill="none">
    <path id="GL" d="M 647.00 -367.184 Q 480 -330 373.15 -250.286 Q 310 -200 273.16 -139.328"/>
    <path id="GS" d="M 273.16 -139.328 Q 240 -85 212 0"/>
    <path id="SL" d="M 273.16 -139.328 L 273.15 -250.286 C 273 -380 270 -400 251.17 -416.101 L 256.15 -427.210 L 272.99 -440.050 L 355.00 -467.278 C 400 -470 550 -490 650 -506 Q 660 -508 750 -520.724"/>
   </g>
   <!--<g id="boundary_solid" stroke="#3366ff" stroke-width="2" fill="none">
    <path id="IhIc" d="M 168 -343 L 170 -160" stroke-width="2" stroke-dasharray="7,4"/>
    <path id="Ih2" d="M 251.17 -416.101 L 238.45 -416.409 L 0 -413"/>
    <path id="IcI11" d="M 72 -414 L 72 0"/>
    <path id="I2I9" d="M 162 -415 Q 200 -428 0 -428"/>
    <path id="I2I3" d="M 238.45 -416.409 L 248.85 -426.847"/>
    <path id="I3I5" d="M 256.15 -427.210 L 248.85 -426.847 L 218.15 -440.00"/>

    <path id="I2I6" d="M 272.99 -440.050 L 218.15 -440.00 L130 -440.00 L 0 -440"/>
    <path id="I6I15" d="M 130 -440.00 L 130 -458.80"/>
    <path id="I6I8" d="M 355.00 -467.278 L 278.15 -466.111 Q 200 -460 130 -458.80 L 0 -459"/>
    <path id="I7I8" d="M 278.15 -466.111 Q 278 -530 100.15 -539.620"/>
    <path id="I10I7" d="M 650 -540 L 100.15 -539.620 L 0 -540"/>
    <path id="I11I10" d="M 650 -575 L 0 -580"/>
   </g>-->

   <g id="text_point_1atm" stroke="#ff0000" fill="#ff0000" font-size="14" font-weight="bold">
    <line x1="0" y1="-250.286" x2="750" y2="-250.286"/>
    <line x1="273.15" y1="0" x2="273.15" y2="-600"/>
    <line x1="373.15" y1="0" x2="373.15" y2="-600"/>
    <g transform="translate(273.15,-250.286)" text-anchor="end">
     <ellipse cx="0" cy="0" rx="5" ry="5" fill="none"/>
     <switch>
      <text x="-10" y="0" dy="1em" font-size="20" letter-spacing="-1" stroke="none" systemLanguage="de">Schmelzpunkt bei 1 atm</text>
      <text x="-10" y="0" dy="1em" font-size="20" letter-spacing="-1" stroke="none">Freezing point at 1 atm</text>
     </switch>
     <text x="-10" y="0" dy="3em" stroke="none">273.15 K, 101.325 kPa</text>
    </g>
    <g transform="translate(373.15,-250.286)" text-anchor="start">
     <ellipse cx="0" cy="0" rx="5" ry="5" fill="none"/>
     <switch>
      <text x="5" y="0" dy="1em" font-size="20" stroke="none" systemLanguage="de">Siedepunkt bei 1 atm</text>
      <text x="5" y="0" dy="1em" font-size="20" stroke="none">Boiling point at 1 atm</text>
     </switch>
     <text x="5" y="0" dy="3em" stroke="none">373.15 K, 101.325 kPa</text>
    </g>
    <!--
    <g transform="translate(273.15,-250)">
     <ellipse cx="0" cy="0" rx="3" ry="3" fill="none"/>
     <text transform="translate(-5,0)" y="-3em" text-anchor="end" stroke="none">
      <tspan x="0" dy="1em" font-size="16">IUPAC STP</tspan>
      <tspan x="0" dy="1em">273.15 K, 100 kPa</tspan>
     </text>
    </g>
    <g transform="translate(293.15,-250.286)">
     <ellipse cx="0" cy="0" rx="3" ry="3" fill="none"/>
     <text transform="translate(0,0)" y="-3em" text-anchor="start" stroke="none">
      <tspan x="0" dy="1em" font-size="16">NIST STP</tspan>
      <tspan x="0" dy="1em">293.15 K, 101.325 kPa</tspan>
     </text>
    </g>
    -->
   </g>
   <g id="text_point" stroke="#000000" fill="#000000" font-size="14">
    <g transform="translate(647.00,-367.184)" text-anchor="end" font-weight="bold">
     <ellipse cx="0" cy="0" rx="5" ry="5" fill="none"/>
     <switch>
      <text x="-10" y="0" dy="-1.2em" font-size="20" stroke="none" systemLanguage="de">Kritischer Punkt</text>
      <text x="-10" y="0" dy="-1.2em" font-size="20" stroke="none">Critical point</text>
     </switch>
     <text x="-10" y="0" dy="-0.5em" stroke="none">647 K, 22.064 MPa</text>
    </g>
    <g transform="translate(273.16,-139.325)" text-anchor="start" font-weight="bold">
     <ellipse cx="0" cy="0" rx="5" ry="5" fill="none"/>
     <switch>
      <text x="5" y="0" dy="1em" font-size="20" stroke="none" systemLanguage="de">Tripelpunkt</text>
      <text x="5" y="0" dy="1em" font-size="20" stroke="none">Solid/Liquid/Vapour triple point</text>
     </switch>
     <text x="5" y="0" dy="2.5em" stroke="none">273.16 K, 611.657 Pa</text>
    </g>
    <!-- <g transform="translate(251.17,-416.101)">
     <ellipse cx="0" cy="0" rx="3" ry="3" fill="none"/>
     <text x="10" y="0.7em" text-anchor="start" stroke="none">251.165 K, 209.9 MPa</text>
    </g>
    <g transform="translate(256.15,-427.210)">
     <ellipse cx="0" cy="0" rx="3" ry="3" fill="none"/>
     <text x="10" y="0.5em" text-anchor="start" stroke="none">256.164 K, 350.1 MPa</text>
    </g>
    <g transform="translate(272.99,-440.050)">
     <ellipse cx="0" cy="0" rx="3" ry="3" fill="none"/>
     <text x="10" y="0.5em" text-anchor="start" stroke="none">272.99 K, 632.4 MPa</text>
    </g>
    <g transform="translate(355.00,-467.278)">
     <ellipse cx="0" cy="0" rx="3" ry="3" fill="none"/>
     <text x="5" y="1em" text-anchor="start" stroke="none">355.00 K, 2.216 GPa</text>
    </g>
    <g transform="translate(238.45,-416.409)">
     <ellipse cx="0" cy="0" rx="3" ry="3" fill="none"/>
     <text x="0" y="1em" text-anchor="end" stroke="none">238.5 K, 212.9 MPa</text>
    </g>
    <g transform="translate(248.85,-426.847)">
     <ellipse cx="0" cy="0" rx="3" ry="3" fill="none"/>
     <text x="-10" y="0.3em" text-anchor="end" stroke="none">248.85 K, 344.3 MPa</text>
    </g>
    <g transform="translate(218.15,-440.00)">
     <ellipse cx="0" cy="0" rx="3" ry="3" fill="none"/>
     <text x="20" y="-5" text-anchor="end" stroke="none">218 K, 620 MPa</text>
    </g>
    <g transform="translate(278.15,-466.111)">
     <ellipse cx="0" cy="0" rx="3" ry="3" fill="none"/>
     <text x="5" y="-5" text-anchor="start" stroke="none">278 K, 2.1 GPa</text>
    </g>
    <g transform="translate(100.15,-539.620)">
     <ellipse cx="0" cy="0" rx="3" ry="3" fill="none"/>
     <text x="5" y="-5" text-anchor="start" stroke="none">100 K, 62 GPa</text>
    </g>
   -->
   </g>
   <g id="text_phase" font-size="32" text-anchor="middle">
    <g fill="#0000ff">
     <switch>
      <text x="100" y="-360" font-weight="bold" systemLanguage="de">Eis</text>
      <text x="90" y="-360" font-weight="bold">Solid</text>
     </switch>
     <!-- 
       <text x="125" y="-260"><tspan>I</tspan><tspan dy="0.2em">c</tspan></text>
       <text x="225" y="-260"><tspan>I</tspan><tspan dy="0.2em">h</tspan></text>
       <text x="365" y="-580"><tspan>XI</tspan><tspan dy="-0.1em" font-size="16"> (hexagonal)</tspan></text>
       <text x="325" y="-550">X</text>
       <text x="325" y="-510">VII</text>
       <text x="295" y="-450">VI</text>
       <text x="37" y="-510">VIII</text>
       <text x="37" y="-441">XV</text>
       <text x="37" y="-414">IX</text>
       <switch>
        <text systemLanguage="de">
         <tspan x="37" y="-260">XI</tspan>
         <tspan x="37" dy="1.5em" font-size="16">(ortho-</tspan>
         <tspan x="37" dy="1em" font-size="16">rhomb.)</tspan>
        </text>
        <text>
         <tspan x="37" y="-260">XI</tspan>
         <tspan x="37" dy="1.5em" font-size="16">(ortho-</tspan>
         <tspan x="37" dy="1em" font-size="16">rhombic)</tspan>
        </text>
       </switch>
       <line x1="140" y1="-435" x2="140" y2="-473" stroke="#0099ff" stroke-width="2"/>
       <ellipse cx="140" cy="-488" rx="15" ry="15" stroke="#0099ff" fill="#66ccff"/>
       <text x="140" y="-480">II</text>
       <line x1="245" y1="-435" x2="245" y2="-473" stroke="#0099ff" stroke-width="2"/>
       <ellipse cx="245" cy="-488" rx="15" ry="15" stroke="#0099ff" fill="#66ccff"/>
       <text x="245" y="-480">V</text>
       <line x1="245" y1="-420" x2="245" y2="-382" stroke="#0099ff" stroke-width="2"/>
       <ellipse cx="245" cy="-367" rx="15" ry="15" stroke="#0099ff" fill="#66ccff"/>
       <text x="245" y="-360">III</text>
     -->
    </g>
    <switch>
     <text x="400" y="-360" font-weight="bold" fill="#009900" systemLanguage="de">Wasser</text>
     <text x="400" y="-360" font-weight="bold" fill="#009900">Liquid</text>
    </switch>
    <switch>
     <text x="500" y="-70" font-weight="bold" fill="#996600" systemLanguage="de">Dampf</text>
     <text x="500" y="-70" font-weight="bold" fill="#996600">Vapour</text>
    </switch>
   </g>
  </g>
 </defs>
 <use xlink:href="#main"/>
</svg>
